<svg xmlns="http://www.w3.org/2000/svg" height="20px" viewBox="0 -960 719.474 744.555" width="20px" fill="#000000">
  <path d="M 576 -216 L 525 -267 L 582 -324 L 384 -324 L 384 -396 L 582 -396 L 525 -453 L 576 -504 L 720 -360 L 576 -216 Z M 672 -600 L 600 -600 L 600 -816 L 528 -816 L 528 -696 L 144 -696 L 144 -816 L 72 -816 L 72 -288 L 288 -288 L 288 -216 L 72 -216 C 52.2 -216 35.25 -223.05 21.15 -237.15 C 7.05 -251.25 0 -268.2 0 -288 L 0 -816 C 0 -835.8 7.05 -852.75 21.15 -866.85 C 35.25 -880.95 52.2 -888 72 -888 L 243 -888 C 248.333 -908.67 259.5 -925.83 276.5 -939.5 C 293.5 -953.17 313.333 -960 336 -960 C 358.667 -960 378.5 -953.17 395.5 -939.5 C 412.5 -925.83 423.667 -908.67 429 -888 L 600 -888 C 619.8 -888 636.75 -880.95 650.85 -866.85 C 664.95 -852.75 672 -835.8 672 -816 L 672 -600 Z M 335.79 -816 C 345.93 -816 354.5 -819.43 361.5 -826.29 C 368.5 -833.15 372 -841.65 372 -851.79 C 372 -861.93 368.57 -870.5 361.71 -877.5 C 354.85 -884.5 346.35 -888 336.21 -888 C 326.07 -888 317.5 -884.57 310.5 -877.71 C 303.5 -870.85 300 -862.35 300 -852.21 C 300 -842.07 303.43 -833.5 310.29 -826.5 C 317.15 -819.5 325.65 -816 335.79 -816 Z"></path>
</svg>